<?xml version="1.0" encoding="UTF-8"?>
<svg width="152px" height="152px" viewBox="0 0 152 152" version="1.1" xmlns="http://www.w3.org/2000/svg" xmlns:xlink="http://www.w3.org/1999/xlink">
    <!-- Generator: Sketch 56.2 (81672) - https://sketch.com -->
    <title>lite</title>
    <desc>Created with Sketch.</desc>
    <defs>
        <linearGradient x1="50%" y1="17.2371032%" x2="50%" y2="100%" id="linearGradient-1">
            <stop stop-color="#FC3F2C" offset="0%"></stop>
            <stop stop-color="#FF6C27" offset="100%"></stop>
        </linearGradient>
        <polygon id="path-2" points="0 0.230565916 151.770426 0.230565916 151.770426 151.87675 0 151.87675"></polygon>
        <linearGradient x1="50%" y1="0%" x2="50%" y2="100%" id="linearGradient-4">
            <stop stop-color="#FDFBFA" offset="0%"></stop>
            <stop stop-color="#DEDEDE" offset="100%"></stop>
        </linearGradient>
    </defs>
    <g id="Page-1" stroke="none" stroke-width="1" fill="none" fill-rule="evenodd">
        <g id="lite">
            <rect id="Rectangle" fill="url(#linearGradient-1)" fill-rule="nonzero" x="16" y="12" width="122" height="126"></rect>
            <g id="Group-16-Copy">
                <path d="M76.4903226,113.389068 C73.5160163,113.389068 71.0967742,115.799751 71.0967742,118.763534 C71.0967742,121.727317 73.5160163,124.141479 76.4903226,124.141479 C79.4646289,124.141479 81.883871,121.727317 81.883871,118.763534 C81.883871,115.799751 79.4646289,113.389068 76.4903226,113.389068" id="Fill-1" fill="#FFFFFF" fill-rule="nonzero"></path>
                <path d="M89.4081311,44.2350877 L84.4804916,49.1240803 C83.6333845,49.9645435 83.6333845,51.320014 84.4804916,52.1569008 C85.3239939,52.9937876 86.6901792,52.9937876 87.5336815,52.1569008 L93.9969278,45.7479215 C94.8440348,44.9110347 94.8440348,43.5519878 93.9969278,42.715101 L87.5336815,36.3061217 C86.6937839,35.4692349 85.3239939,35.4692349 84.4804916,36.3061217 C83.6333845,37.1465849 83.6333845,38.5020554 84.4804916,39.3425187 L89.4081311,44.2350877 Z" id="Fill-3" fill="#FFFFFF" fill-rule="nonzero"></path>
                <path d="M34.8146481,113.389068 C31.8378143,113.389068 29.4193548,115.799751 29.4193548,118.763534 C29.4193548,121.727317 31.8378143,124.141479 34.8146481,124.141479 C37.791482,124.141479 40.2064516,121.727317 40.2064516,118.763534 C40.2064516,115.799751 37.791482,113.389068 34.8146481,113.389068" id="Fill-5" fill="#FFFFFF" fill-rule="nonzero"></path>
                <path d="M68.993074,36.3061217 C68.1494307,35.4692349 66.7758065,35.4692349 65.9285579,36.3061217 L59.4714421,42.715101 C58.6277989,43.5519878 58.6277989,44.9110347 59.4714421,45.7479215 L65.9285579,52.1569008 C66.7794118,52.9937876 68.1494307,52.9937876 68.993074,52.1569008 C69.833112,51.320014 69.833112,49.9609671 68.9894687,49.1240803 L64.0610057,44.2350877 L68.993074,39.3425187 C69.8367173,38.5020554 69.8367173,37.1430085 68.993074,36.3061217" id="Fill-7" fill="#FFFFFF" fill-rule="nonzero"></path>
                <path d="M82.3298483,29.4080882 C81.2095675,29.082462 80.0614536,29.7407933 79.7483316,30.8663277 L72.1568632,57.9003877 C71.8437412,59.025922 72.4839017,60.2010082 73.590266,60.5266345 C73.7885766,60.5832651 73.9799289,60.6045016 74.1678021,60.6045016 C75.079335,60.6045016 75.9143269,59.9992615 76.1717828,59.068395 L83.7632512,32.034335 C84.0833314,30.9088007 83.4362127,29.7337145 82.3298483,29.4080882" id="Fill-9" fill="#FFFFFF" fill-rule="nonzero"></path>
                <path d="M119.150132,113.389068 C116.173298,113.389068 113.754839,115.799751 113.754839,118.763534 C113.754839,121.727317 116.173298,124.141479 119.150132,124.141479 C122.123476,124.141479 124.541935,121.727317 124.541935,118.763534 C124.541935,115.799751 122.123476,113.389068 119.150132,113.389068" id="Fill-11" fill="#FFFFFF" fill-rule="nonzero"></path>
                <g id="Group-15">
                    <g id="Fill-13-Clipped">
                        <mask id="mask-3" fill="white">
                            <use xlink:href="#path-2"></use>
                        </mask>
                        <g id="path-2"></g>
                        <path d="M118.942452,135.16958 C110.03418,135.16958 102.821033,127.958744 102.821033,119.061246 C102.821033,111.648435 107.860306,105.472275 114.683361,103.597812 L114.683361,94.1333678 C114.683361,93.1553871 113.885447,92.3616637 112.910218,92.3616637 L82.4972645,92.3616637 L82.4972645,104.132866 C88.4266557,106.510493 92.6219127,112.286249 92.6219127,119.061246 C92.6219127,127.958744 85.4052195,135.16958 76.5040402,135.16958 C67.6028609,135.16958 60.3861677,127.958744 60.3861677,119.061246 C60.3861677,112.013406 64.9466923,106.085284 71.2626287,103.902545 L71.2626287,92.3616637 L41.9844867,92.3616637 C41.0057116,92.3616637 40.2113434,93.1553871 40.2113434,94.1333678 L40.2113434,103.948609 C46.4492615,106.173869 50.935314,112.066558 50.935314,119.061246 C50.935314,127.958744 43.7221671,135.16958 34.8174416,135.16958 C25.9162623,135.16958 18.6960228,127.958744 18.6960228,119.061246 C18.6960228,112.013406 23.2636399,106.085284 29.5724837,103.902545 L29.5724837,94.1333678 C29.5724837,87.2945897 35.1401536,81.7314386 41.9844867,81.7314386 L71.2626287,81.7314386 L71.2626287,70.6760045 C59.2442635,68.0964032 50.2331493,57.4342875 50.2331493,44.6532135 C50.2331493,29.9516122 62.159311,18.0280431 76.8799466,18.0280431 C91.5970359,18.0280431 103.523198,29.9516122 103.523198,44.6532135 C103.523198,57.4342875 94.5120834,68.0964032 82.4972645,70.6760045 L82.4972645,81.7314386 L112.910218,81.7314386 C119.754551,81.7314386 125.322221,87.2945897 125.322221,94.1333678 L125.322221,104.281689 C131.049474,106.751445 135.060324,112.435072 135.060324,119.061246 C135.060324,127.958744 127.843631,135.16958 118.942452,135.16958 L118.942452,135.16958 Z M26.0261971,0.229502894 C11.6530977,0.229502894 0,11.8731428 0,26.2345768 L0,125.871677 C0,140.236654 11.6530977,151.87675 26.0261971,151.87675 L125.744229,151.87675 C140.120875,151.87675 151.773973,140.236654 151.773973,125.871677 L151.773973,26.2345768 C151.773973,11.8731428 140.120875,0.229502894 125.744229,0.229502894 L26.0261971,0.229502894 Z" id="Fill-13" fill="url(#linearGradient-4)" fill-rule="nonzero" mask="url(#mask-3)"></path>
                    </g>
                </g>
            </g>
        </g>
    </g>
</svg>