<?xml version="1.0" standalone="no"?>
<!DOCTYPE svg PUBLIC "-//W3C//DTD SVG 20010904//EN"
 "http://www.w3.org/TR/2001/REC-SVG-20010904/DTD/svg10.dtd">
<svg version="1.0" xmlns="http://www.w3.org/2000/svg"
 width="300.000000pt" height="300.000000pt" viewBox="0 0 300.000000 300.000000"
 preserveAspectRatio="xMidYMid meet">
<metadata>
Created by potrace 1.14, written by Peter Selinger 2001-2017
</metadata>
<g transform="translate(0.000000,300.000000) scale(0.100000,-0.100000)"
fill="#000000" stroke="none">
<path d="M1579 2995 c-1 -6 -1 -13 0 -17 0 -5 -2 -7 -7 -5 -4 1 -169 -160
-367 -357 -198 -198 -354 -361 -347 -364 7 -2 12 -10 12 -18 0 -8 4 -14 9 -14
14 0 273 -261 266 -268 -3 -3 -28 -6 -57 -7 -31 0 -53 -5 -56 -13 -2 -7 -7
-10 -11 -7 -10 6 -76 -65 -77 -82 -2 -29 -4 -34 -12 -29 -11 6 2 -81 16 -114
11 -25 59 -76 71 -74 3 0 16 -5 29 -12 12 -6 42 -10 65 -7 23 2 48 4 55 5 6 1
12 5 12 10 0 4 6 8 14 8 19 0 66 60 73 93 3 15 10 30 14 33 5 3 6 11 2 17 -12
20 -14 47 -3 47 12 0 90 -79 90 -91 0 -4 -3 -15 -6 -24 -6 -14 -8 -13 -21 5
-20 29 -29 25 -47 -19 -22 -55 -95 -120 -128 -113 -5 1 -8 -1 -8 -6 0 -7 -26
-7 -107 -3 -12 0 -28 8 -36 16 -8 8 -17 12 -19 9 -8 -8 -88 77 -82 87 3 5 1 9
-4 9 -10 0 -13 16 -16 90 -2 52 11 100 27 100 4 0 7 6 7 13 0 23 111 103 124
89 3 -3 6 -1 6 4 0 5 -34 42 -75 81 -41 40 -76 76 -77 80 -1 5 -13 17 -27 28
-14 10 -34 28 -43 38 -16 18 -32 4 -382 -347 -201 -201 -366 -368 -366 -371 0
-3 164 -169 365 -370 256 -255 370 -363 380 -358 9 3 13 8 11 11 -3 3 9 16 26
29 18 12 28 23 22 23 -5 0 3 8 19 18 15 10 24 22 20 25 -3 4 1 7 11 7 9 0 15
3 13 8 -3 4 1 13 9 20 8 7 14 10 14 7 0 -3 8 3 18 13 11 9 17 20 15 25 -2 4 4
7 13 7 10 0 15 3 11 6 -6 7 15 34 23 29 3 -2 11 3 18 11 7 8 10 14 6 14 -4 0
5 9 19 20 14 11 29 20 34 20 4 0 7 -23 6 -52 -1 -55 22 -118 44 -118 7 0 13
-4 13 -10 0 -5 17 -18 38 -28 38 -20 86 -22 136 -8 56 17 134 128 104 148 -8
4 -8 8 -2 8 12 0 12 29 0 48 -13 22 9 12 26 -12 20 -27 31 -76 17 -76 -5 0 -8
-3 -8 -7 1 -5 1 -15 0 -24 -2 -34 -89 -119 -121 -119 -9 0 -20 -3 -24 -8 -9
-9 -126 -10 -120 -1 2 4 -7 10 -21 13 -27 7 -107 80 -98 90 4 3 1 6 -5 6 -6 0
-13 13 -17 30 -4 16 -9 30 -11 30 -2 0 -58 -54 -124 -120 l-120 -120 365 -365
c201 -201 369 -365 375 -365 5 0 10 5 10 12 0 6 3 9 6 6 3 -3 31 22 62 57 31
35 60 64 64 64 11 1 47 39 42 43 -2 3 7 10 20 18 31 16 42 50 15 45 -11 -2
-19 1 -19 6 0 6 -4 7 -10 4 -5 -3 -10 -1 -10 4 0 6 -5 11 -11 11 -14 0 -69 55
-69 69 0 6 -4 11 -8 11 -5 0 -14 22 -21 49 -9 37 -10 55 -1 70 6 12 7 21 1 21
-14 0 24 71 58 108 33 35 89 62 136 64 25 1 89 -13 113 -26 26 -14 91 -76 91
-86 0 -3 5 -18 11 -34 l10 -28 49 43 c27 24 49 46 50 49 1 3 36 41 78 85 65
65 89 82 141 101 270 98 450 306 518 599 15 63 9 268 -10 340 -22 84 -72 196
-117 262 -43 62 -141 160 -202 202 -42 29 -165 91 -192 98 -74 17 -109 34
-148 69 -25 23 -43 45 -40 48 4 3 1 6 -5 6 -11 0 -184 170 -173 170 3 0 1 4
-6 8 -7 4 15 7 47 5 34 -1 60 2 60 7 0 6 7 10 14 10 33 0 118 112 95 125 -5 4
-6 12 -2 18 11 17 13 37 4 37 -4 0 -8 6 -9 13 -3 41 -30 87 -50 87 -7 0 -10 5
-7 10 3 6 -3 10 -14 10 -10 0 -21 5 -23 10 -2 6 -29 11 -60 11 -41 1 -68 -5
-97 -22 -23 -12 -41 -27 -41 -32 0 -4 -7 -15 -15 -24 -8 -8 -13 -19 -10 -24 4
-5 1 -9 -6 -9 -7 0 -10 -11 -7 -29 2 -17 1 -28 -4 -25 -11 7 -10 -3 2 -26 7
-13 7 -21 0 -25 -5 -3 -10 -1 -10 4 0 6 -4 11 -10 11 -5 0 -75 66 -155 147
-80 81 -146 143 -146 138z m-205 -1710 c6 -18 -2 -45 -15 -45 -20 0 -7 -22 19
-31 16 -6 34 -25 45 -46 l18 -35 -43 24 c-34 20 -55 25 -103 23 -33 -1 -54 0
-47 2 6 3 11 8 9 11 -2 4 7 17 20 29 13 12 23 20 23 18 0 -3 8 3 18 13 11 9
17 20 15 25 -2 4 3 7 12 7 9 0 13 5 10 10 -3 6 -2 10 3 10 6 0 12 -7 16 -15z"/>
</g>
</svg>
